<svg xmlns="http://www.w3.org/2000/svg" xmlns:xlink="http://www.w3.org/1999/xlink" width="375" height="812" viewBox="0 0 375 812">
  <defs>
    <clipPath id="clip-path">
      <rect id="Rectangle_17852" data-name="Rectangle 17852" width="83.253" height="36.914" fill="none"/>
    </clipPath>
    <clipPath id="clip-path-2">
      <rect id="Rectangle_17854" data-name="Rectangle 17854" width="30.37" height="58.12" fill="none"/>
    </clipPath>
    <clipPath id="clip-App_Fraankly_Start_splash-screen">
      <rect width="375" height="812"/>
    </clipPath>
  </defs>
  <g id="App_Fraankly_Start_splash-screen" data-name="App_Fraankly_Start –splash-screen" clip-path="url(#clip-App_Fraankly_Start_splash-screen)">
    <rect width="375" height="812"/>
    <path id="Design_right_" data-name="Design right " d="M879.116,110.965a40.278,40.278,0,0,1-20.831-24.336L830.143,0H934.1V105.958l-23.135,7.511A40.124,40.124,0,0,1,879.116,110.965Z" transform="translate(-559.098 -20.641)" fill="#ff65ab" fill-rule="evenodd"/>
    <g id="Design_left_" data-name="Design left " transform="translate(-3.68 0.25)">
      <rect id="Rectangle_17850" data-name="Rectangle 17850" width="79.274" height="416.395" transform="translate(0 0)" fill="none"/>
      <path id="Path_5494" data-name="Path 5494" d="M58.908,758.722a28.979,28.979,0,0,1,18.562,36.432l-5.506,16.935H0v-72.5ZM77.766,17.555a27.931,27.931,0,0,1-1.7,22.06A28.006,28.006,0,0,1,59.2,53.988L.607,73.018V0H72.052Z" transform="translate(3 0.003)" fill="#8ec2ff" fill-rule="evenodd"/>
    </g>
    <g id="Squares" transform="translate(249.18 712.764)">
      <g id="Group_10605" data-name="Group 10605" clip-path="url(#clip-path)">
        <path id="Path_5425" data-name="Path 5425" d="M286.662,75.25a6.835,6.835,0,0,1,6.918-6.918,6.632,6.632,0,0,1,4.873,2A6.7,6.7,0,0,1,300.5,75.25a6.983,6.983,0,0,1-6.918,6.918,6.7,6.7,0,0,1-4.917-2.045,6.632,6.632,0,0,1-2-4.873" transform="translate(-217.246 -51.785)" fill="#cee4ff" fill-rule="evenodd"/>
        <path id="Path_5426" data-name="Path 5426" d="M94.2,13.948,87.223,27.633q-2.113,4.148-6.261,2.035L67.276,22.695q-4.148-2.113-2.035-6.261L72.214,2.748Q74.328-1.4,78.476.713L92.161,7.687Q96.309,9.8,94.2,13.948" transform="translate(-48.902 0)" fill="#ff65a7" fill-rule="evenodd"/>
        <path id="Path_5427" data-name="Path 5427" d="M28.712,44.829,22.924,56.188q-2.713,5.325-8.038,2.612L3.527,53.012Q-1.8,50.3.916,44.973L6.7,33.615Q9.417,28.29,14.742,31L26.1,36.791q5.325,2.714,2.611,8.039M19.16,54.27l5.788-11.358a1.548,1.548,0,0,0-.765-2.356L12.824,34.768a1.548,1.548,0,0,0-2.356.766L4.681,46.892a1.548,1.548,0,0,0,.765,2.356L16.8,55.035a1.548,1.548,0,0,0,2.356-.765" transform="translate(0 -22.801)" fill="#cee4ff" fill-rule="evenodd"/>
      </g>
    </g>
    <g id="Dots" transform="translate(75.594 128.961)">
      <g id="Group_10609" data-name="Group 10609" clip-path="url(#clip-path-2)">
        <path id="Path_5430" data-name="Path 5430" d="M0,7.637A7.545,7.545,0,0,1,7.637,0a7.32,7.32,0,0,1,5.378,2.209,7.4,7.4,0,0,1,2.259,5.428,7.238,7.238,0,0,1-2.259,5.379,7.239,7.239,0,0,1-5.378,2.257A7.4,7.4,0,0,1,2.21,13.016,7.322,7.322,0,0,1,0,7.637" fill="#ff65ab" fill-rule="evenodd"/>
        <path id="Path_5431" data-name="Path 5431" d="M35.579,108.619a7.542,7.542,0,0,1,7.637-7.637,7.32,7.32,0,0,1,5.378,2.209,7.4,7.4,0,0,1,2.257,5.428,7.708,7.708,0,0,1-7.636,7.637A7.4,7.4,0,0,1,37.787,114a7.322,7.322,0,0,1-2.208-5.379" transform="translate(-25.689 -75.489)" fill="#ffdc78" fill-rule="evenodd"/>
      </g>
    </g>
  </g>
</svg>
